<svg xmlns="http://www.w3.org/2000/svg" xmlns:xlink="http://www.w3.org/1999/xlink" style="vertical-align:-4.005ex" width="93.623ex" height="9.134ex" viewBox="0 -2208.6 40309.8 3932.8"><defs><path id="j" stroke-width="1" d="M319 0v602h84V0h-84z"/><path id="b" stroke-width="1" d="M213 578l-13-5q-14-5-40-10t-58-7H83v46h19q47 2 87 15t56 24 28 22q2 3 12 3 9 0 17-6V361l1-300q7-7 12-9t24-4 62-2h26V0h-11q-21 3-159 3-136 0-157-3H88v46h64q16 0 25 1t16 3 8 2 6 5 6 4v517z"/><path id="f" stroke-width="1" d="M109 429q-27 0-43 18t-16 44q0 71 53 123t132 52q91 0 152-56t62-145q0-43-20-82t-48-68-80-74q-36-31-100-92l-59-56 76-1q157 0 167 5 7 2 24 89v3h40v-3q-1-3-13-91T421 3V0H50v31q0 7 6 15t30 35q29 32 50 56 9 10 34 37t34 37 29 33 28 34 23 30 21 32 15 29 13 32 7 30 3 33q0 63-34 109t-97 46q-33 0-58-17t-35-33-10-19q0-1 5-1 18 0 37-14t19-46q0-25-16-42t-45-18z"/><path id="c" stroke-width="1" d="M84 237v13l14 20h581q15-8 15-20t-15-20H98q-14 7-14 20z"/><path id="e" stroke-width="1" d="M127 463q-27 0-42 17t-16 44q0 55 48 98t116 43q35 0 44-1 74-12 113-53t40-89q0-52-34-101t-94-71l-3-2q0-1 9-3t29-9 38-21q82-53 82-140 0-79-62-138T238-22q-80 0-138 43T42 130q0 28 18 45t45 18q28 0 46-18t18-45q0-11-3-20t-7-16-11-12-12-8-10-4-8-3l-4-1q51-45 124-45 55 0 83 53 17 33 17 101v20q0 95-64 127-15 6-61 7l-42 1-3 2q-2 3-2 16 0 18 8 18 28 0 58 5 34 5 62 42t28 112v8q0 57-35 79-22 14-47 14-32 0-59-11t-38-23-11-12h3q3-1 8-2t10-5 12-7 10-11 8-15 3-20q0-22-14-39t-45-18z"/><path id="a" stroke-width="1" d="M247-949v2399h269v-62H309V-887h207v-62H247z"/><path id="g" stroke-width="1" d="M11 1388v62h269V-949H11v62h207v2275H11z"/><path id="h" stroke-width="1" d="M630 29q0-20-21-20-5 0-22 16t-94 93L389 222 284 117Q178 13 175 11q-4-2-7-2-8 0-14 6t-7 14q0 7 14 22t94 95l104 104-104 104q-81 81-94 95t-14 22q0 9 6 14t15 5q5 0 7-1 3-2 109-106l105-105 104 104q77 77 94 93t22 16q21 0 21-20 0-7-10-18t-98-98L418 250l104-105q84-84 96-97t12-19z"/><path id="i" stroke-width="1" d="M319-645v1799h347v-84H403V-645h-84z"/><path id="k" stroke-width="1" d="M319-644v1799h84V-560h263v-84H319z"/><path id="d" stroke-width="1" d="M96 585q56 81 153 81 48 0 96-26t78-92q37-83 37-228 0-155-43-237-20-42-55-67t-61-31-51-7q-26 0-52 6t-61 32-55 67q-43 82-43 237 0 174 57 265zm225 12q-30 32-71 32-42 0-72-32-25-26-33-72t-8-192q0-158 8-208t36-79q28-30 69-30 40 0 68 30 29 30 36 84t8 203q0 145-8 191t-33 73z"/><path id="l" stroke-width="1" d="M0 1070v84h347V-645h-84v1715H0z"/><path id="n" stroke-width="1" d="M263-560v1715h84V-644H0v84h263z"/><path id="m" stroke-width="1" d="M263 0v602h84V0h-84z"/><path id="o" stroke-width="1" d="M56 347q0 13 14 20h637q15-8 15-20 0-11-14-19l-318-1H72q-16 5-16 20zm0-194q0 15 16 20h636q14-10 14-20 0-13-15-20H70q-14 7-14 20z"/><path id="p" stroke-width="1" d="M94 250q0 69 10 131t23 107 37 88 38 67 42 52 33 34 25 21h17q14 0 14-9 0-3-17-21t-41-53-49-86-42-138-17-193 17-192 41-139 49-86 42-53 17-21q0-9-15-9h-16l-28 24q-94 85-137 212T94 250z"/><path id="q" stroke-width="1" d="M56 237v13l14 20h299v150l1 150q10 13 19 13 13 0 20-15V270h298q15-8 15-20t-15-20H409V-68q-8-14-18-14h-4q-12 0-18 14v298H70q-14 7-14 20z"/><path id="r" stroke-width="1" d="M60 749l4 1h22l28-24q94-85 137-212t43-264q0-68-10-131T261 12t-37-88-38-67-41-51-32-33-23-19l-4-4H63q-3 0-5 3t-3 9q1 1 11 13Q221-64 221 250T66 725q-10 12-11 13 0 8 5 11z"/><path id="s" stroke-width="1" d="M164 157q0-24-16-40t-39-16h-7q46-79 122-79 70 0 102 60 19 33 19 128 0 103-27 139-26 33-58 33h-6q-78 0-118-68-4-7-7-8t-15-2q-17 0-19 6-2 4-2 175v129q0 50 5 50 2 2 4 2 1 0 21-8t55-16 75-8q71 0 136 28 8 4 13 4 8 0 8-18v-13q-82-97-205-97-31 0-56 6l-10 2V374q19 14 30 22t36 16 51 8q81 0 137-65t56-154q0-92-64-157T229-22q-81 0-130 54T50 154q0 24 11 38t23 18 23 4q25 0 41-17t16-40z"/><path id="t" stroke-width="1" d="M462 0q-18 3-129 3-116 0-134-3h-9v46h58q7 0 17 2t14 5 7 8q1 2 1 54v50H28v46l151 231q153 232 155 233 2 2 21 2h18l6-6V211h92v-46h-92v-51-48q0-7 6-12 8-7 57-8h29V0h-9zM293 211v334L74 212l109-1h110z"/></defs><g fill="currentColor" stroke="currentColor" stroke-width="0" transform="scale(1 -1)"><use xlink:href="#a"/><g transform="translate(681)"><use x="389" y="650" xlink:href="#b"/><g transform="translate(0 -750)"><use xlink:href="#c"/><use x="778" xlink:href="#b"/></g></g><g transform="translate(2960)"><use y="650" xlink:href="#d"/><use y="-750" xlink:href="#e"/></g><g transform="translate(4460)"><use y="650" xlink:href="#f"/><use y="-750" xlink:href="#b"/></g><use x="5128" y="-1" xlink:href="#g"/><use x="5879" xlink:href="#h"/><g transform="translate(6880 2150)"><use y="-1155" xlink:href="#i"/><use transform="matrix(1 0 0 .49338 0 -2048.507)" xlink:href="#j"/><use y="-3155" xlink:href="#k"/></g><g transform="translate(7700)"><use y="1350" xlink:href="#e"/><use y="-50" xlink:href="#f"/><use y="-1450" xlink:href="#b"/></g><g transform="translate(9200)"><use y="1350" xlink:href="#b"/><use y="-50" xlink:href="#b"/><use y="-1450" xlink:href="#d"/></g><g transform="translate(9868 2150)"><use y="-1155" xlink:href="#l"/><use transform="matrix(1 0 0 .49338 0 -2048.507)" xlink:href="#m"/><use y="-3155" xlink:href="#n"/></g><use x="10813" xlink:href="#o"/><g transform="translate(11870)"><use xlink:href="#a"/><g transform="translate(1070 701)"><use xlink:href="#p"/><use x="389" xlink:href="#b"/><use x="1112" xlink:href="#h"/><use x="2112" xlink:href="#e"/><use x="2835" xlink:href="#q"/><use x="3836" xlink:href="#d"/><use x="4559" xlink:href="#h"/><use x="5559" xlink:href="#f"/><use x="6282" xlink:href="#q"/><use x="7283" xlink:href="#f"/><use x="8006" xlink:href="#h"/><use x="9006" xlink:href="#b"/><use x="9507" xlink:href="#r"/></g><g transform="translate(681 -750)"><use xlink:href="#p"/><use x="389" xlink:href="#c"/><use x="1168" xlink:href="#b"/><use x="1890" xlink:href="#h"/><use x="2891" xlink:href="#e"/><use x="3614" xlink:href="#q"/><use x="4614" xlink:href="#e"/><use x="5337" xlink:href="#h"/><use x="6338" xlink:href="#f"/><use x="7061" xlink:href="#q"/><use x="8061" xlink:href="#b"/><use x="8784" xlink:href="#h"/><use x="9785" xlink:href="#b"/><use x="10285" xlink:href="#r"/></g><g><g transform="translate(12745 701)"><use xlink:href="#p"/><use x="389" xlink:href="#b"/><use x="1112" xlink:href="#h"/><use x="2112" xlink:href="#b"/><use x="2835" xlink:href="#q"/><use x="3836" xlink:href="#d"/><use x="4559" xlink:href="#h"/><use x="5559" xlink:href="#b"/><use x="6282" xlink:href="#q"/><use x="7283" xlink:href="#f"/><use x="8006" xlink:href="#h"/><use x="9006" xlink:href="#d"/><use x="9507" xlink:href="#r"/></g><g transform="translate(12356 -750)"><use xlink:href="#p"/><use x="389" xlink:href="#c"/><use x="1168" xlink:href="#b"/><use x="1890" xlink:href="#h"/><use x="2891" xlink:href="#b"/><use x="3614" xlink:href="#q"/><use x="4614" xlink:href="#e"/><use x="5337" xlink:href="#h"/><use x="6338" xlink:href="#b"/><use x="7061" xlink:href="#q"/><use x="8061" xlink:href="#b"/><use x="8784" xlink:href="#h"/><use x="9785" xlink:href="#d"/><use x="10285" xlink:href="#r"/></g></g><use x="23199" y="-1" xlink:href="#g"/></g><use x="35875" xlink:href="#o"/><g transform="translate(36931)"><use xlink:href="#a"/><g transform="translate(681)"><use y="650" xlink:href="#s"/><use y="-750" xlink:href="#t"/></g><g transform="translate(2181)"><use y="650" xlink:href="#b"/><use y="-750" xlink:href="#f"/></g><use x="2849" y="-1" xlink:href="#g"/></g></g></svg>